<svg xmlns="http://www.w3.org/2000/svg" xmlns:xlink="http://www.w3.org/1999/xlink" width="1680" height="494.2"><rect width="1680" height="494.2" rx="5" ry="5" class="a"/><svg y="0%" x="0%"><circle cx="20" cy="20" r="6" fill="#ff5f58"/><circle cx="40" cy="20" r="6" fill="#ffbd2e"/><circle cx="60" cy="20" r="6" fill="#18c132"/></svg><svg height="434.2" viewBox="0 0 164 43.42" width="1640" x="15" xmlns="http://www.w3.org/2000/svg" xmlns:xlink="http://www.w3.org/1999/xlink" y="50"><style>@keyframes n{0%{transform:translateX(0)}.3%{transform:translateX(-164px)}5%{transform:translateX(-328px)}6.8%{transform:translateX(-492px)}9.6%{transform:translateX(-656px)}11.6%{transform:translateX(-820px)}15.6%{transform:translateX(-984px)}20.8%{transform:translateX(-1476px)}20.9%{transform:translateX(-1640px)}21%{transform:translateX(-1968px)}32.7%{transform:translateX(-2296px)}33.3%{transform:translateX(-2624px)}35.2%{transform:translateX(-2952px)}41%{transform:translateX(-3280px)}42.8%{transform:translateX(-3608px)}45.4%{transform:translateX(-3936px)}46.8%{transform:translateX(-4428px)}48.3%{transform:translateX(-4756px)}50.3%{transform:translateX(-5084px)}54.8%{transform:translateX(-5412px)}58.3%{transform:translateX(-5740px)}63.2%{transform:translateX(-6396px)}63.3%{transform:translateX(-8528px)}64%{transform:translateX(-9348px)}64.1%{transform:translateX(-9676px)}72.2%{transform:translateX(-10004px)}74.6%{transform:translateX(-10332px)}77.2%{transform:translateX(-10660px)}77.8%{transform:translateX(-10988px)}84.2%{transform:translateX(-11480px)}84.3%{transform:translateX(-11644px)}to{transform:translateX(-11808px)}}.a{fill:#1e1f29}.f{fill:#f8f8f2}.g{fill:#50fa7b}.h{fill:#f1fa8c;font-weight:700}.i{fill:#8be9fd}.k{fill:#f55}.l{fill:#ff79c6}</style><g font-size="1.67" font-family="Monaco,Consolas,Menlo,'Bitstream Vera Sans Mono','Powerline Symbols',monospace"><defs><symbol id="1"><text y="1.67" class="f">bash-3.2$</text></symbol><symbol id="2"><text y="1.67" class="f">bash-3.2$</text><text x="10.02" y="1.67" class="f">aemb</text></symbol><symbol id="3"><text x="1.002" y="1.67" class="g">/$$$$$$</text><text x="10.02" y="1.67" class="g">/$$$$$$$$</text><text x="20.04" y="1.67" class="g">/$$</text><text x="29.058" y="1.67" class="g">/$$</text><text x="39.078" y="1.67" class="g">/$$$$$$$</text><text x="50.1" y="1.67" class="g">/$$$$$$</text><text x="60.12" y="1.67" class="g">/$$$$$$</text><text x="69.138" y="1.67" class="g">/$$</text><text x="75.15" y="1.67" class="g">/$$</text><text x="79.158" y="1.67" class="g">/$$</text><text x="85.17" y="1.67" class="g">/$$</text><text x="89.178" y="1.67" class="g">/$$$$$$$</text><text x="106.212" y="1.67" class="g">/$$$$$$</text><text x="115.23" y="1.67" class="g">/$$</text><text x="125.25" y="1.67" class="g">/$$$$$$</text></symbol><symbol id="4"><text x="1.002" y="1.67" class="g">/$$__</text><text x="8.016" y="1.67" class="g">$$|</text><text x="12.024" y="1.67" class="g">$$_____/|</text><text x="22.044" y="1.67" class="g">$$$</text><text x="29.058" y="1.67" class="g">/$$$</text><text x="39.078" y="1.67" class="g">|</text><text x="41.082" y="1.67" class="g">$$__</text><text x="47.094" y="1.67" class="g">$$</text><text x="50.1" y="1.67" class="g">/$$__</text><text x="57.114" y="1.67" class="g">$$</text><text x="60.12" y="1.67" class="g">/$$__</text><text x="67.134" y="1.67" class="g">$$|</text><text x="71.142" y="1.67" class="g">$$</text><text x="75.15" y="1.67" class="g">/$$/|</text><text x="81.162" y="1.67" class="g">$$</text><text x="85.17" y="1.67" class="g">|</text><text x="87.174" y="1.67" class="g">$$|</text><text x="91.182" y="1.67" class="g">$$__</text><text x="97.194" y="1.67" class="g">$$</text><text x="106.212" y="1.67" class="g">/$$__</text><text x="113.226" y="1.67" class="g">$$|</text><text x="117.234" y="1.67" class="g">$$</text><text x="125.25" y="1.67" class="g">|_</text><text x="129.258" y="1.67" class="g">$$_/</text></symbol><symbol id="5"><text y="1.67" class="g">|</text><text x="2.004" y="1.67" class="g">$$</text><text x="6.012" y="1.67" class="g">\</text><text x="8.016" y="1.67" class="g">$$|</text><text x="12.024" y="1.67" class="g">$$</text><text x="20.04" y="1.67" class="g">|</text><text x="22.044" y="1.67" class="g">$$$$</text><text x="28.056" y="1.67" class="g">/$$$$</text><text x="39.078" y="1.67" class="g">|</text><text x="41.082" y="1.67" class="g">$$</text><text x="45.09" y="1.67" class="g">\</text><text x="47.094" y="1.67" class="g">$$|</text><text x="51.102" y="1.67" class="g">$$</text><text x="55.11" y="1.67" class="g">\</text><text x="57.114" y="1.67" class="g">$$|</text><text x="61.122" y="1.67" class="g">$$</text><text x="65.13" y="1.67" class="g">\__/|</text><text x="71.142" y="1.67" class="g">$$</text><text x="74.148" y="1.67" class="g">/$$/</text><text x="79.158" y="1.67" class="g">|</text><text x="81.162" y="1.67" class="g">$$</text><text x="85.17" y="1.67" class="g">|</text><text x="87.174" y="1.67" class="g">$$|</text><text x="91.182" y="1.67" class="g">$$</text><text x="95.19" y="1.67" class="g">\</text><text x="97.194" y="1.67" class="g">$$</text><text x="105.21" y="1.67" class="g">|</text><text x="107.214" y="1.67" class="g">$$</text><text x="111.222" y="1.67" class="g">\__/|</text><text x="117.234" y="1.67" class="g">$$</text><text x="127.254" y="1.67" class="g">|</text><text x="129.258" y="1.67" class="g">$$</text></symbol><symbol id="6"><text y="1.67" class="g">|</text><text x="2.004" y="1.67" class="g">$$$$$$$$|</text><text x="12.024" y="1.67" class="g">$$$$$</text><text x="20.04" y="1.67" class="g">|</text><text x="22.044" y="1.67" class="g">$$</text><text x="25.05" y="1.67" class="g">$$/$$</text><text x="31.062" y="1.67" class="g">$$</text><text x="39.078" y="1.67" class="g">|</text><text x="41.082" y="1.67" class="g">$$$$$$$</text><text x="49.098" y="1.67" class="g">|</text><text x="51.102" y="1.67" class="g">$$$$$$$$|</text><text x="61.122" y="1.67" class="g">$$</text><text x="69.138" y="1.67" class="g">|</text><text x="71.142" y="1.67" class="g">$$$$$/</text><text x="79.158" y="1.67" class="g">|</text><text x="81.162" y="1.67" class="g">$$</text><text x="85.17" y="1.67" class="g">|</text><text x="87.174" y="1.67" class="g">$$|</text><text x="91.182" y="1.67" class="g">$$$$$$$/</text><text x="105.21" y="1.67" class="g">|</text><text x="107.214" y="1.67" class="g">$$</text><text x="115.23" y="1.67" class="g">|</text><text x="117.234" y="1.67" class="g">$$</text><text x="127.254" y="1.67" class="g">|</text><text x="129.258" y="1.67" class="g">$$</text></symbol><symbol id="7"><text y="1.67" class="g">|</text><text x="2.004" y="1.67" class="g">$$__</text><text x="8.016" y="1.67" class="g">$$|</text><text x="12.024" y="1.67" class="g">$$__/</text><text x="20.04" y="1.67" class="g">|</text><text x="22.044" y="1.67" class="g">$$</text><text x="26.052" y="1.67" class="g">$$$|</text><text x="31.062" y="1.67" class="g">$$</text><text x="39.078" y="1.67" class="g">|</text><text x="41.082" y="1.67" class="g">$$__</text><text x="47.094" y="1.67" class="g">$$|</text><text x="51.102" y="1.67" class="g">$$__</text><text x="57.114" y="1.67" class="g">$$|</text><text x="61.122" y="1.67" class="g">$$</text><text x="69.138" y="1.67" class="g">|</text><text x="71.142" y="1.67" class="g">$$</text><text x="75.15" y="1.67" class="g">$$</text><text x="79.158" y="1.67" class="g">|</text><text x="81.162" y="1.67" class="g">$$</text><text x="85.17" y="1.67" class="g">|</text><text x="87.174" y="1.67" class="g">$$|</text><text x="91.182" y="1.67" class="g">$$____/</text><text x="105.21" y="1.67" class="g">|</text><text x="107.214" y="1.67" class="g">$$</text><text x="115.23" y="1.67" class="g">|</text><text x="117.234" y="1.67" class="g">$$</text><text x="127.254" y="1.67" class="g">|</text><text x="129.258" y="1.67" class="g">$$</text></symbol><symbol id="8"><text y="1.67" class="g">|</text><text x="2.004" y="1.67" class="g">$$</text><text x="6.012" y="1.67" class="g">|</text><text x="8.016" y="1.67" class="g">$$|</text><text x="12.024" y="1.67" class="g">$$</text><text x="20.04" y="1.67" class="g">|</text><text x="22.044" y="1.67" class="g">$$\</text><text x="27.054" y="1.67" class="g">$</text><text x="29.058" y="1.67" class="g">|</text><text x="31.062" y="1.67" class="g">$$</text><text x="39.078" y="1.67" class="g">|</text><text x="41.082" y="1.67" class="g">$$</text><text x="45.09" y="1.67" class="g">\</text><text x="47.094" y="1.67" class="g">$$|</text><text x="51.102" y="1.67" class="g">$$</text><text x="55.11" y="1.67" class="g">|</text><text x="57.114" y="1.67" class="g">$$|</text><text x="61.122" y="1.67" class="g">$$</text><text x="67.134" y="1.67" class="g">$$|</text><text x="71.142" y="1.67" class="g">$$\</text><text x="76.152" y="1.67" class="g">$$</text><text x="79.158" y="1.67" class="g">|</text><text x="81.162" y="1.67" class="g">$$</text><text x="85.17" y="1.67" class="g">|</text><text x="87.174" y="1.67" class="g">$$|</text><text x="91.182" y="1.67" class="g">$$</text><text x="105.21" y="1.67" class="g">|</text><text x="107.214" y="1.67" class="g">$$</text><text x="113.226" y="1.67" class="g">$$|</text><text x="117.234" y="1.67" class="g">$$</text><text x="127.254" y="1.67" class="g">|</text><text x="129.258" y="1.67" class="g">$$</text></symbol><symbol id="9"><text y="1.67" class="g">|</text><text x="2.004" y="1.67" class="g">$$</text><text x="6.012" y="1.67" class="g">|</text><text x="8.016" y="1.67" class="g">$$|</text><text x="12.024" y="1.67" class="g">$$$$$$$$|</text><text x="22.044" y="1.67" class="g">$$</text><text x="25.05" y="1.67" class="g">\/</text><text x="29.058" y="1.67" class="g">|</text><text x="31.062" y="1.67" class="g">$$</text><text x="39.078" y="1.67" class="g">|</text><text x="41.082" y="1.67" class="g">$$$$$$$/|</text><text x="51.102" y="1.67" class="g">$$</text><text x="55.11" y="1.67" class="g">|</text><text x="57.114" y="1.67" class="g">$$|</text><text x="62.124" y="1.67" class="g">$$$$$$/|</text><text x="71.142" y="1.67" class="g">$$</text><text x="74.148" y="1.67" class="g">\</text><text x="77.154" y="1.67" class="g">$$|</text><text x="82.164" y="1.67" class="g">$$$$$$/|</text><text x="91.182" y="1.67" class="g">$$</text><text x="105.21" y="1.67" class="g">|</text><text x="108.216" y="1.67" class="g">$$$$$$/|</text><text x="117.234" y="1.67" class="g">$$$$$$$$</text><text x="126.252" y="1.67" class="g">/$$$$$$</text></symbol><symbol id="10"><text y="1.67" class="g">|__/</text><text x="6.012" y="1.67" class="g">|__/|________/|__/</text><text x="29.058" y="1.67" class="g">|__/</text><text x="39.078" y="1.67" class="g">|_______/</text><text x="49.098" y="1.67" class="g">|__/</text><text x="55.11" y="1.67" class="g">|__/</text><text x="60.12" y="1.67" class="g">\______/</text><text x="69.138" y="1.67" class="g">|__/</text><text x="75.15" y="1.67" class="g">\__/</text><text x="80.16" y="1.67" class="g">\______/</text><text x="89.178" y="1.67" class="g">|__/</text><text x="106.212" y="1.67" class="g">\______/</text><text x="115.23" y="1.67" class="g">|________/|______/</text></symbol><symbol id="11"><text y="1.67" class="h">Please</text><text x="7.014" y="1.67" class="h">make</text><text x="12.024" y="1.67" class="h">sure</text><text x="17.034" y="1.67" class="h">your</text><text x="22.044" y="1.67" class="h">AEM</text><text x="26.052" y="1.67" class="h">instance</text><text x="35.07" y="1.67" class="h">is</text><text x="38.076" y="1.67" class="h">completely</text><text x="49.098" y="1.67" class="h">shutdown</text><text x="58.116" y="1.67" class="h">before</text><text x="65.13" y="1.67" class="h">using</text><text x="71.142" y="1.67" class="h">ANY</text><text x="75.15" y="1.67" class="h">of</text><text x="78.156" y="1.67" class="h">the</text><text x="82.164" y="1.67" class="h">CLI</text><text x="86.172" y="1.67" class="h">commands</text></symbol><symbol id="12"><text y="1.67" class="f">aemb$</text></symbol><symbol id="13"><text y="1.67" class="f">aemb$</text><text x="6.012" y="1.67" class="i">backup</text><text x="13.026" y="1.67" class="i">test-backup-2</text></symbol><symbol id="14"><text y="1.67" class="i">⠋</text></symbol><symbol id="15"><text y="1.67" fill="#bd93f9">ℹ</text><text x="2.004" y="1.67" class="f">checking</text><text x="11.022" y="1.67" class="f">if</text><text x="14.028" y="1.67" class="f">backup</text><text x="21.042" y="1.67" class="f">already</text><text x="29.058" y="1.67" class="f">exists</text></symbol><symbol id="16"><text y="1.67" class="g">✔</text><text x="2.004" y="1.67" class="k">it</text><text x="5.01" y="1.67" class="k">does</text><text x="10.02" y="1.67" class="k">not</text></symbol><symbol id="17"><text y="1.67" class="g">✔</text><text x="2.004" y="1.67" class="g">One</text><text x="6.012" y="1.67" class="g">backup</text><text x="13.026" y="1.67" class="g">coming</text><text x="20.04" y="1.67" class="g">right</text><text x="26.052" y="1.67" class="g">up!</text></symbol><symbol id="18"><text y="1.67" class="i">⠦</text><text x="2.004" y="1.67" class="l">[5.68</text><text x="8.016" y="1.67" class="l">GB]</text><text x="12.024" y="1.67" class="g">Backing</text><text x="20.04" y="1.67" class="g">up</text><text x="23.046" y="1.67" class="g">crx-quickstart/launchpad/felix/bundle473/data/classes/org/apache/sling/scripting/sightly/apps/mercy/components/content/general/slider__002d__</text></symbol><symbol id="19"><text y="1.67" class="g">✔</text><text x="2.004" y="1.67" class="g">[5.68</text><text x="8.016" y="1.67" class="g">GB]</text><text x="12.024" y="1.67" class="g">All</text><text x="16.032" y="1.67" class="g">backed</text><text x="23.046" y="1.67" class="g">up!</text><text x="27.054" y="1.67" class="g">We</text><text x="30.06" y="1.67" class="g">have</text><text x="35.07" y="1.67" class="g">a</text><text x="37.074" y="1.67" class="g">lift</text><text x="42.084" y="1.67" class="g">off!</text></symbol><symbol id="20"><text y="1.67" class="f">aemb$</text><text x="6.012" y="1.67" class="i">exit</text></symbol><symbol id="a"><path fill="transparent" d="M0 0h164v21H0z"/></symbol></defs><path class="a" d="M0 0h164v43.42H0z"/><g style="animation-duration:4.688s;animation-iteration-count:infinite;animation-name:n;animation-timing-function:steps(1,end)"><svg width="11972"><svg><use xlink:href="#a"/></svg><svg x="164"><use xlink:href="#a"/><use xlink:href="#1"/></svg><svg x="328"><use xlink:href="#a"/><text y="1.67" class="f">bash-3.2$</text><text x="10.02" y="1.67" class="f">a</text></svg><svg x="492"><use xlink:href="#a"/><text y="1.67" class="f">bash-3.2$</text><text x="10.02" y="1.67" class="f">ae</text></svg><svg x="656"><use xlink:href="#a"/><text y="1.67" class="f">bash-3.2$</text><text x="10.02" y="1.67" class="f">aem</text></svg><svg x="820"><use xlink:href="#a"/><use xlink:href="#2"/></svg><svg x="984"><use xlink:href="#a"/><use xlink:href="#2"/></svg><svg x="1148"><use xlink:href="#a"/><use xlink:href="#2"/><use xlink:href="#3" y="4.342"/><use xlink:href="#4" y="6.513"/><use xlink:href="#5" y="8.684"/><use xlink:href="#6" y="10.855"/><use xlink:href="#7" y="13.026"/><use xlink:href="#8" y="15.197"/><use xlink:href="#9" y="17.368"/><text y="21.209" class="g">|__/</text><text x="6.012" y="21.209" class="g">|__/|________/|__/</text><text x="29.058" y="21.209" class="g">|__/</text><text x="39.078" y="21.209" class="g">|_______/</text><text x="49.098" y="21.209" class="g">|__/</text><text x="55.11" y="21.209" class="g">|__/</text><text x="60.12" y="21.209" class="g">\______/</text><text x="69.138" y="21.209" class="g">|__/</text></svg><svg x="1312"><use xlink:href="#a"/><use xlink:href="#2"/><use xlink:href="#3" y="4.342"/><use xlink:href="#4" y="6.513"/><use xlink:href="#5" y="8.684"/><use xlink:href="#6" y="10.855"/><use xlink:href="#7" y="13.026"/><use xlink:href="#8" y="15.197"/><use xlink:href="#9" y="17.368"/><use xlink:href="#10" y="19.539"/></svg><svg x="1476"><use xlink:href="#a"/><use xlink:href="#2"/><use xlink:href="#3" y="4.342"/><use xlink:href="#4" y="6.513"/><use xlink:href="#5" y="8.684"/><use xlink:href="#6" y="10.855"/><use xlink:href="#7" y="13.026"/><use xlink:href="#8" y="15.197"/><use xlink:href="#9" y="17.368"/><use xlink:href="#10" y="19.539"/><use xlink:href="#11" y="23.881"/></svg><svg x="1640"><use xlink:href="#a"/><use xlink:href="#2"/><use xlink:href="#3" y="4.342"/><use xlink:href="#4" y="6.513"/><use xlink:href="#5" y="8.684"/><use xlink:href="#6" y="10.855"/><use xlink:href="#7" y="13.026"/><use xlink:href="#8" y="15.197"/><use xlink:href="#9" y="17.368"/><use xlink:href="#10" y="19.539"/><use xlink:href="#11" y="23.881"/><use xlink:href="#12" y="26.052"/></svg><svg x="1804"><use xlink:href="#a"/><use xlink:href="#2"/><use xlink:href="#3" y="4.342"/><use xlink:href="#4" y="6.513"/><use xlink:href="#5" y="8.684"/><use xlink:href="#6" y="10.855"/><use xlink:href="#7" y="13.026"/><use xlink:href="#8" y="15.197"/><use xlink:href="#9" y="17.368"/><use xlink:href="#10" y="19.539"/><use xlink:href="#11" y="23.881"/><use xlink:href="#12" y="26.052"/></svg><svg x="1968"><use xlink:href="#a"/><use xlink:href="#2"/><use xlink:href="#3" y="4.342"/><use xlink:href="#4" y="6.513"/><use xlink:href="#5" y="8.684"/><use xlink:href="#6" y="10.855"/><use xlink:href="#7" y="13.026"/><use xlink:href="#8" y="15.197"/><use xlink:href="#9" y="17.368"/><use xlink:href="#10" y="19.539"/><use xlink:href="#11" y="23.881"/><use xlink:href="#12" y="26.052"/></svg><svg x="2132"><use xlink:href="#a"/><use xlink:href="#2"/><use xlink:href="#3" y="4.342"/><use xlink:href="#4" y="6.513"/><use xlink:href="#5" y="8.684"/><use xlink:href="#6" y="10.855"/><use xlink:href="#7" y="13.026"/><use xlink:href="#8" y="15.197"/><use xlink:href="#9" y="17.368"/><use xlink:href="#10" y="19.539"/><use xlink:href="#11" y="23.881"/></svg><svg x="2296"><use xlink:href="#a"/><use xlink:href="#2"/><use xlink:href="#3" y="4.342"/><use xlink:href="#4" y="6.513"/><use xlink:href="#5" y="8.684"/><use xlink:href="#6" y="10.855"/><use xlink:href="#7" y="13.026"/><use xlink:href="#8" y="15.197"/><use xlink:href="#9" y="17.368"/><use xlink:href="#10" y="19.539"/><use xlink:href="#11" y="23.881"/><text y="27.722" class="f">aemb$</text><text x="6.012" y="27.722" class="f">b</text></svg><svg x="2460"><use xlink:href="#a"/><use xlink:href="#2"/><use xlink:href="#3" y="4.342"/><use xlink:href="#4" y="6.513"/><use xlink:href="#5" y="8.684"/><use xlink:href="#6" y="10.855"/><use xlink:href="#7" y="13.026"/><use xlink:href="#8" y="15.197"/><use xlink:href="#9" y="17.368"/><use xlink:href="#10" y="19.539"/><use xlink:href="#11" y="23.881"/></svg><svg x="2624"><use xlink:href="#a"/><use xlink:href="#2"/><use xlink:href="#3" y="4.342"/><use xlink:href="#4" y="6.513"/><use xlink:href="#5" y="8.684"/><use xlink:href="#6" y="10.855"/><use xlink:href="#7" y="13.026"/><use xlink:href="#8" y="15.197"/><use xlink:href="#9" y="17.368"/><use xlink:href="#10" y="19.539"/><use xlink:href="#11" y="23.881"/><text y="27.722" class="f">aemb$</text><text x="6.012" y="27.722" class="f">ba</text></svg><svg x="2788"><use xlink:href="#a"/><use xlink:href="#2"/><use xlink:href="#3" y="4.342"/><use xlink:href="#4" y="6.513"/><use xlink:href="#5" y="8.684"/><use xlink:href="#6" y="10.855"/><use xlink:href="#7" y="13.026"/><use xlink:href="#8" y="15.197"/><use xlink:href="#9" y="17.368"/><use xlink:href="#10" y="19.539"/><use xlink:href="#11" y="23.881"/></svg><svg x="2952"><use xlink:href="#a"/><use xlink:href="#2"/><use xlink:href="#3" y="4.342"/><use xlink:href="#4" y="6.513"/><use xlink:href="#5" y="8.684"/><use xlink:href="#6" y="10.855"/><use xlink:href="#7" y="13.026"/><use xlink:href="#8" y="15.197"/><use xlink:href="#9" y="17.368"/><use xlink:href="#10" y="19.539"/><use xlink:href="#11" y="23.881"/><text y="27.722" class="f">aemb$</text><text x="6.012" y="27.722" class="f">bac</text></svg><svg x="3116"><use xlink:href="#a"/><use xlink:href="#2"/><use xlink:href="#3" y="4.342"/><use xlink:href="#4" y="6.513"/><use xlink:href="#5" y="8.684"/><use xlink:href="#6" y="10.855"/><use xlink:href="#7" y="13.026"/><use xlink:href="#8" y="15.197"/><use xlink:href="#9" y="17.368"/><use xlink:href="#10" y="19.539"/><use xlink:href="#11" y="23.881"/></svg><svg x="3280"><use xlink:href="#a"/><use xlink:href="#2"/><use xlink:href="#3" y="4.342"/><use xlink:href="#4" y="6.513"/><use xlink:href="#5" y="8.684"/><use xlink:href="#6" y="10.855"/><use xlink:href="#7" y="13.026"/><use xlink:href="#8" y="15.197"/><use xlink:href="#9" y="17.368"/><use xlink:href="#10" y="19.539"/><use xlink:href="#11" y="23.881"/><text y="27.722" class="f">aemb$</text><text x="6.012" y="27.722" class="f">back</text></svg><svg x="3444"><use xlink:href="#a"/><use xlink:href="#2"/><use xlink:href="#3" y="4.342"/><use xlink:href="#4" y="6.513"/><use xlink:href="#5" y="8.684"/><use xlink:href="#6" y="10.855"/><use xlink:href="#7" y="13.026"/><use xlink:href="#8" y="15.197"/><use xlink:href="#9" y="17.368"/><use xlink:href="#10" y="19.539"/><use xlink:href="#11" y="23.881"/></svg><svg x="3608"><use xlink:href="#a"/><use xlink:href="#2"/><use xlink:href="#3" y="4.342"/><use xlink:href="#4" y="6.513"/><use xlink:href="#5" y="8.684"/><use xlink:href="#6" y="10.855"/><use xlink:href="#7" y="13.026"/><use xlink:href="#8" y="15.197"/><use xlink:href="#9" y="17.368"/><use xlink:href="#10" y="19.539"/><use xlink:href="#11" y="23.881"/><text y="27.722" class="f">aemb$</text><text x="6.012" y="27.722" class="f">backu</text></svg><svg x="3772"><use xlink:href="#a"/><use xlink:href="#2"/><use xlink:href="#3" y="4.342"/><use xlink:href="#4" y="6.513"/><use xlink:href="#5" y="8.684"/><use xlink:href="#6" y="10.855"/><use xlink:href="#7" y="13.026"/><use xlink:href="#8" y="15.197"/><use xlink:href="#9" y="17.368"/><use xlink:href="#10" y="19.539"/><use xlink:href="#11" y="23.881"/></svg><svg x="3936"><use xlink:href="#a"/><use xlink:href="#2"/><use xlink:href="#3" y="4.342"/><use xlink:href="#4" y="6.513"/><use xlink:href="#5" y="8.684"/><use xlink:href="#6" y="10.855"/><use xlink:href="#7" y="13.026"/><use xlink:href="#8" y="15.197"/><use xlink:href="#9" y="17.368"/><use xlink:href="#10" y="19.539"/><use xlink:href="#11" y="23.881"/><text y="27.722" class="f">aemb$</text><text x="6.012" y="27.722" class="f">backup</text></svg><svg x="4100"><use xlink:href="#a"/><use xlink:href="#2"/><use xlink:href="#3" y="4.342"/><use xlink:href="#4" y="6.513"/><use xlink:href="#5" y="8.684"/><use xlink:href="#6" y="10.855"/><use xlink:href="#7" y="13.026"/><use xlink:href="#8" y="15.197"/><use xlink:href="#9" y="17.368"/><use xlink:href="#10" y="19.539"/><use xlink:href="#11" y="23.881"/></svg><svg x="4264"><use xlink:href="#a"/><use xlink:href="#2"/><use xlink:href="#3" y="4.342"/><use xlink:href="#4" y="6.513"/><use xlink:href="#5" y="8.684"/><use xlink:href="#6" y="10.855"/><use xlink:href="#7" y="13.026"/><use xlink:href="#8" y="15.197"/><use xlink:href="#9" y="17.368"/><use xlink:href="#10" y="19.539"/><use xlink:href="#11" y="23.881"/></svg><svg x="4428"><use xlink:href="#a"/><use xlink:href="#2"/><use xlink:href="#3" y="4.342"/><use xlink:href="#4" y="6.513"/><use xlink:href="#5" y="8.684"/><use xlink:href="#6" y="10.855"/><use xlink:href="#7" y="13.026"/><use xlink:href="#8" y="15.197"/><use xlink:href="#9" y="17.368"/><use xlink:href="#10" y="19.539"/><use xlink:href="#11" y="23.881"/><text y="27.722" class="f">aemb$</text><text x="6.012" y="27.722" class="f">backup</text><text x="13.026" y="27.722" class="f">test-back</text></svg><svg x="4592"><use xlink:href="#a"/><use xlink:href="#2"/><use xlink:href="#3" y="4.342"/><use xlink:href="#4" y="6.513"/><use xlink:href="#5" y="8.684"/><use xlink:href="#6" y="10.855"/><use xlink:href="#7" y="13.026"/><use xlink:href="#8" y="15.197"/><use xlink:href="#9" y="17.368"/><use xlink:href="#10" y="19.539"/><use xlink:href="#11" y="23.881"/></svg><svg x="4756"><use xlink:href="#a"/><use xlink:href="#2"/><use xlink:href="#3" y="4.342"/><use xlink:href="#4" y="6.513"/><use xlink:href="#5" y="8.684"/><use xlink:href="#6" y="10.855"/><use xlink:href="#7" y="13.026"/><use xlink:href="#8" y="15.197"/><use xlink:href="#9" y="17.368"/><use xlink:href="#10" y="19.539"/><use xlink:href="#11" y="23.881"/><text y="27.722" class="f">aemb$</text><text x="6.012" y="27.722" class="f">backup</text><text x="13.026" y="27.722" class="f">test-backu</text></svg><svg x="4920"><use xlink:href="#a"/><use xlink:href="#2"/><use xlink:href="#3" y="4.342"/><use xlink:href="#4" y="6.513"/><use xlink:href="#5" y="8.684"/><use xlink:href="#6" y="10.855"/><use xlink:href="#7" y="13.026"/><use xlink:href="#8" y="15.197"/><use xlink:href="#9" y="17.368"/><use xlink:href="#10" y="19.539"/><use xlink:href="#11" y="23.881"/></svg><svg x="5084"><use xlink:href="#a"/><use xlink:href="#2"/><use xlink:href="#3" y="4.342"/><use xlink:href="#4" y="6.513"/><use xlink:href="#5" y="8.684"/><use xlink:href="#6" y="10.855"/><use xlink:href="#7" y="13.026"/><use xlink:href="#8" y="15.197"/><use xlink:href="#9" y="17.368"/><use xlink:href="#10" y="19.539"/><use xlink:href="#11" y="23.881"/><text y="27.722" class="f">aemb$</text><text x="6.012" y="27.722" class="f">backup</text><text x="13.026" y="27.722" class="f">test-backup</text></svg><svg x="5248"><use xlink:href="#a"/><use xlink:href="#2"/><use xlink:href="#3" y="4.342"/><use xlink:href="#4" y="6.513"/><use xlink:href="#5" y="8.684"/><use xlink:href="#6" y="10.855"/><use xlink:href="#7" y="13.026"/><use xlink:href="#8" y="15.197"/><use xlink:href="#9" y="17.368"/><use xlink:href="#10" y="19.539"/><use xlink:href="#11" y="23.881"/></svg><svg x="5412"><use xlink:href="#a"/><use xlink:href="#2"/><use xlink:href="#3" y="4.342"/><use xlink:href="#4" y="6.513"/><use xlink:href="#5" y="8.684"/><use xlink:href="#6" y="10.855"/><use xlink:href="#7" y="13.026"/><use xlink:href="#8" y="15.197"/><use xlink:href="#9" y="17.368"/><use xlink:href="#10" y="19.539"/><use xlink:href="#11" y="23.881"/><text y="27.722" class="f">aemb$</text><text x="6.012" y="27.722" class="f">backup</text><text x="13.026" y="27.722" class="f">test-backup-</text></svg><svg x="5576"><use xlink:href="#a"/><use xlink:href="#2"/><use xlink:href="#3" y="4.342"/><use xlink:href="#4" y="6.513"/><use xlink:href="#5" y="8.684"/><use xlink:href="#6" y="10.855"/><use xlink:href="#7" y="13.026"/><use xlink:href="#8" y="15.197"/><use xlink:href="#9" y="17.368"/><use xlink:href="#10" y="19.539"/><use xlink:href="#11" y="23.881"/></svg><svg x="5740"><use xlink:href="#a"/><use xlink:href="#2"/><use xlink:href="#3" y="4.342"/><use xlink:href="#4" y="6.513"/><use xlink:href="#5" y="8.684"/><use xlink:href="#6" y="10.855"/><use xlink:href="#7" y="13.026"/><use xlink:href="#8" y="15.197"/><use xlink:href="#9" y="17.368"/><use xlink:href="#10" y="19.539"/><use xlink:href="#11" y="23.881"/><text y="27.722" class="f">aemb$</text><text x="6.012" y="27.722" class="f">backup</text><text x="13.026" y="27.722" class="f">test-backup-2</text></svg><svg x="5904"><use xlink:href="#a"/><use xlink:href="#2"/><use xlink:href="#3" y="4.342"/><use xlink:href="#4" y="6.513"/><use xlink:href="#5" y="8.684"/><use xlink:href="#6" y="10.855"/><use xlink:href="#7" y="13.026"/><use xlink:href="#8" y="15.197"/><use xlink:href="#9" y="17.368"/><use xlink:href="#10" y="19.539"/><use xlink:href="#11" y="23.881"/></svg><svg x="6068"><use xlink:href="#a"/><use xlink:href="#2"/><use xlink:href="#3" y="4.342"/><use xlink:href="#4" y="6.513"/><use xlink:href="#5" y="8.684"/><use xlink:href="#6" y="10.855"/><use xlink:href="#7" y="13.026"/><use xlink:href="#8" y="15.197"/><use xlink:href="#9" y="17.368"/><use xlink:href="#10" y="19.539"/><use xlink:href="#11" y="23.881"/><use xlink:href="#13" y="26.052"/></svg><svg x="6232"><use xlink:href="#a"/><use xlink:href="#2"/><use xlink:href="#3" y="4.342"/><use xlink:href="#4" y="6.513"/><use xlink:href="#5" y="8.684"/><use xlink:href="#6" y="10.855"/><use xlink:href="#7" y="13.026"/><use xlink:href="#8" y="15.197"/><use xlink:href="#9" y="17.368"/><use xlink:href="#10" y="19.539"/><use xlink:href="#11" y="23.881"/><use xlink:href="#13" y="26.052"/></svg><svg x="6396"><use xlink:href="#a"/><use xlink:href="#2"/><use xlink:href="#3" y="4.342"/><use xlink:href="#4" y="6.513"/><use xlink:href="#5" y="8.684"/><use xlink:href="#6" y="10.855"/><use xlink:href="#7" y="13.026"/><use xlink:href="#8" y="15.197"/><use xlink:href="#9" y="17.368"/><use xlink:href="#10" y="19.539"/><use xlink:href="#11" y="23.881"/><use xlink:href="#13" y="26.052"/></svg><svg x="6560"><use xlink:href="#a"/><use xlink:href="#2"/><use xlink:href="#3" y="4.342"/><use xlink:href="#4" y="6.513"/><use xlink:href="#5" y="8.684"/><use xlink:href="#6" y="10.855"/><use xlink:href="#7" y="13.026"/><use xlink:href="#8" y="15.197"/><use xlink:href="#9" y="17.368"/><use xlink:href="#10" y="19.539"/><use xlink:href="#11" y="23.881"/><use xlink:href="#13" y="26.052"/></svg><svg x="6724"><use xlink:href="#a"/><use xlink:href="#2"/><use xlink:href="#3" y="4.342"/><use xlink:href="#4" y="6.513"/><use xlink:href="#5" y="8.684"/><use xlink:href="#6" y="10.855"/><use xlink:href="#7" y="13.026"/><use xlink:href="#8" y="15.197"/><use xlink:href="#9" y="17.368"/><use xlink:href="#10" y="19.539"/><use xlink:href="#11" y="23.881"/><use xlink:href="#13" y="26.052"/><use xlink:href="#14" y="28.223"/></svg><svg x="6888"><use xlink:href="#a"/><use xlink:href="#2"/><use xlink:href="#3" y="4.342"/><use xlink:href="#4" y="6.513"/><use xlink:href="#5" y="8.684"/><use xlink:href="#6" y="10.855"/><use xlink:href="#7" y="13.026"/><use xlink:href="#8" y="15.197"/><use xlink:href="#9" y="17.368"/><use xlink:href="#10" y="19.539"/><use xlink:href="#11" y="23.881"/><use xlink:href="#13" y="26.052"/></svg><svg x="7052"><use xlink:href="#a"/><use xlink:href="#2"/><use xlink:href="#3" y="4.342"/><use xlink:href="#4" y="6.513"/><use xlink:href="#5" y="8.684"/><use xlink:href="#6" y="10.855"/><use xlink:href="#7" y="13.026"/><use xlink:href="#8" y="15.197"/><use xlink:href="#9" y="17.368"/><use xlink:href="#10" y="19.539"/><use xlink:href="#11" y="23.881"/><use xlink:href="#13" y="26.052"/></svg><svg x="7216"><use xlink:href="#a"/><use xlink:href="#2"/><use xlink:href="#3" y="4.342"/><use xlink:href="#4" y="6.513"/><use xlink:href="#5" y="8.684"/><use xlink:href="#6" y="10.855"/><use xlink:href="#7" y="13.026"/><use xlink:href="#8" y="15.197"/><use xlink:href="#9" y="17.368"/><use xlink:href="#10" y="19.539"/><use xlink:href="#11" y="23.881"/><use xlink:href="#13" y="26.052"/><use xlink:href="#15" y="28.223"/></svg><svg x="7380"><use xlink:href="#a"/><use xlink:href="#2"/><use xlink:href="#3" y="4.342"/><use xlink:href="#4" y="6.513"/><use xlink:href="#5" y="8.684"/><use xlink:href="#6" y="10.855"/><use xlink:href="#7" y="13.026"/><use xlink:href="#8" y="15.197"/><use xlink:href="#9" y="17.368"/><use xlink:href="#10" y="19.539"/><use xlink:href="#11" y="23.881"/><use xlink:href="#13" y="26.052"/><use xlink:href="#15" y="28.223"/></svg><svg x="7544"><use xlink:href="#a"/><use xlink:href="#2"/><use xlink:href="#3" y="4.342"/><use xlink:href="#4" y="6.513"/><use xlink:href="#5" y="8.684"/><use xlink:href="#6" y="10.855"/><use xlink:href="#7" y="13.026"/><use xlink:href="#8" y="15.197"/><use xlink:href="#9" y="17.368"/><use xlink:href="#10" y="19.539"/><use xlink:href="#11" y="23.881"/><use xlink:href="#13" y="26.052"/><use xlink:href="#15" y="28.223"/><use xlink:href="#14" y="30.394"/></svg><svg x="7708"><use xlink:href="#a"/><use xlink:href="#2"/><use xlink:href="#3" y="4.342"/><use xlink:href="#4" y="6.513"/><use xlink:href="#5" y="8.684"/><use xlink:href="#6" y="10.855"/><use xlink:href="#7" y="13.026"/><use xlink:href="#8" y="15.197"/><use xlink:href="#9" y="17.368"/><use xlink:href="#10" y="19.539"/><use xlink:href="#11" y="23.881"/><use xlink:href="#13" y="26.052"/><use xlink:href="#15" y="28.223"/></svg><svg x="7872"><use xlink:href="#a"/><use xlink:href="#2"/><use xlink:href="#3" y="4.342"/><use xlink:href="#4" y="6.513"/><use xlink:href="#5" y="8.684"/><use xlink:href="#6" y="10.855"/><use xlink:href="#7" y="13.026"/><use xlink:href="#8" y="15.197"/><use xlink:href="#9" y="17.368"/><use xlink:href="#10" y="19.539"/><use xlink:href="#11" y="23.881"/><use xlink:href="#13" y="26.052"/><use xlink:href="#15" y="28.223"/><use xlink:href="#16" y="30.394"/></svg><svg x="8036"><use xlink:href="#a"/><use xlink:href="#2"/><use xlink:href="#3" y="4.342"/><use xlink:href="#4" y="6.513"/><use xlink:href="#5" y="8.684"/><use xlink:href="#6" y="10.855"/><use xlink:href="#7" y="13.026"/><use xlink:href="#8" y="15.197"/><use xlink:href="#9" y="17.368"/><use xlink:href="#10" y="19.539"/><use xlink:href="#11" y="23.881"/><use xlink:href="#13" y="26.052"/><use xlink:href="#15" y="28.223"/><use xlink:href="#16" y="30.394"/><use xlink:href="#14" y="32.565"/></svg><svg x="8200"><use xlink:href="#a"/><use xlink:href="#2"/><use xlink:href="#3" y="4.342"/><use xlink:href="#4" y="6.513"/><use xlink:href="#5" y="8.684"/><use xlink:href="#6" y="10.855"/><use xlink:href="#7" y="13.026"/><use xlink:href="#8" y="15.197"/><use xlink:href="#9" y="17.368"/><use xlink:href="#10" y="19.539"/><use xlink:href="#11" y="23.881"/><use xlink:href="#13" y="26.052"/><use xlink:href="#15" y="28.223"/><use xlink:href="#16" y="30.394"/></svg><svg x="8364"><use xlink:href="#a"/><use xlink:href="#2"/><use xlink:href="#3" y="4.342"/><use xlink:href="#4" y="6.513"/><use xlink:href="#5" y="8.684"/><use xlink:href="#6" y="10.855"/><use xlink:href="#7" y="13.026"/><use xlink:href="#8" y="15.197"/><use xlink:href="#9" y="17.368"/><use xlink:href="#10" y="19.539"/><use xlink:href="#11" y="23.881"/><use xlink:href="#13" y="26.052"/><use xlink:href="#15" y="28.223"/><use xlink:href="#16" y="30.394"/><use xlink:href="#17" y="32.565"/></svg><svg x="8528"><use xlink:href="#a"/><use xlink:href="#2"/><use xlink:href="#3" y="4.342"/><use xlink:href="#4" y="6.513"/><use xlink:href="#5" y="8.684"/><use xlink:href="#6" y="10.855"/><use xlink:href="#7" y="13.026"/><use xlink:href="#8" y="15.197"/><use xlink:href="#9" y="17.368"/><use xlink:href="#10" y="19.539"/><use xlink:href="#11" y="23.881"/><use xlink:href="#13" y="26.052"/><use xlink:href="#15" y="28.223"/><use xlink:href="#16" y="30.394"/><use xlink:href="#17" y="32.565"/><text y="36.406" class="i">⠋</text><text x="2.004" y="36.406" class="f">back</text><text x="7.014" y="36.406" class="f">it</text><text x="10.02" y="36.406" class="f">up...</text></svg><svg x="8692"><use xlink:href="#a"/><use xlink:href="#2"/><use xlink:href="#3" y="4.342"/><use xlink:href="#4" y="6.513"/><use xlink:href="#5" y="8.684"/><use xlink:href="#6" y="10.855"/><use xlink:href="#7" y="13.026"/><use xlink:href="#8" y="15.197"/><use xlink:href="#9" y="17.368"/><use xlink:href="#10" y="19.539"/><use xlink:href="#11" y="23.881"/><use xlink:href="#13" y="26.052"/><use xlink:href="#15" y="28.223"/><use xlink:href="#16" y="30.394"/><use xlink:href="#17" y="32.565"/></svg><svg x="8856"><use xlink:href="#a"/><use xlink:href="#2"/><use xlink:href="#3" y="4.342"/><use xlink:href="#4" y="6.513"/><use xlink:href="#5" y="8.684"/><use xlink:href="#6" y="10.855"/><use xlink:href="#7" y="13.026"/><use xlink:href="#8" y="15.197"/><use xlink:href="#9" y="17.368"/><use xlink:href="#10" y="19.539"/><use xlink:href="#11" y="23.881"/><use xlink:href="#13" y="26.052"/><use xlink:href="#15" y="28.223"/><use xlink:href="#16" y="30.394"/><use xlink:href="#17" y="32.565"/></svg><svg x="9020"><use xlink:href="#a"/><use xlink:href="#2"/><use xlink:href="#3" y="4.342"/><use xlink:href="#4" y="6.513"/><use xlink:href="#5" y="8.684"/><use xlink:href="#6" y="10.855"/><use xlink:href="#7" y="13.026"/><use xlink:href="#8" y="15.197"/><use xlink:href="#9" y="17.368"/><use xlink:href="#10" y="19.539"/><use xlink:href="#11" y="23.881"/><use xlink:href="#13" y="26.052"/><use xlink:href="#15" y="28.223"/><use xlink:href="#16" y="30.394"/><use xlink:href="#17" y="32.565"/><use xlink:href="#18" y="34.736"/><text y="38.577" class="g">container/slider/slider_html.class</text></svg><svg x="9184"><use xlink:href="#a"/><use xlink:href="#2"/><use xlink:href="#3" y="4.342"/><use xlink:href="#4" y="6.513"/><use xlink:href="#5" y="8.684"/><use xlink:href="#6" y="10.855"/><use xlink:href="#7" y="13.026"/><use xlink:href="#8" y="15.197"/><use xlink:href="#9" y="17.368"/><use xlink:href="#10" y="19.539"/><use xlink:href="#11" y="23.881"/><use xlink:href="#13" y="26.052"/><use xlink:href="#15" y="28.223"/><use xlink:href="#16" y="30.394"/><use xlink:href="#17" y="32.565"/><use xlink:href="#18" y="34.736"/></svg><svg x="9348"><use xlink:href="#a"/><use xlink:href="#2"/><use xlink:href="#3" y="4.342"/><use xlink:href="#4" y="6.513"/><use xlink:href="#5" y="8.684"/><use xlink:href="#6" y="10.855"/><use xlink:href="#7" y="13.026"/><use xlink:href="#8" y="15.197"/><use xlink:href="#9" y="17.368"/><use xlink:href="#10" y="19.539"/><use xlink:href="#11" y="23.881"/><use xlink:href="#13" y="26.052"/><use xlink:href="#15" y="28.223"/><use xlink:href="#16" y="30.394"/><use xlink:href="#17" y="32.565"/><use xlink:href="#19" y="34.736"/></svg><svg x="9512"><use xlink:href="#a"/><use xlink:href="#2"/><use xlink:href="#3" y="4.342"/><use xlink:href="#4" y="6.513"/><use xlink:href="#5" y="8.684"/><use xlink:href="#6" y="10.855"/><use xlink:href="#7" y="13.026"/><use xlink:href="#8" y="15.197"/><use xlink:href="#9" y="17.368"/><use xlink:href="#10" y="19.539"/><use xlink:href="#11" y="23.881"/><use xlink:href="#13" y="26.052"/><use xlink:href="#15" y="28.223"/><use xlink:href="#16" y="30.394"/><use xlink:href="#17" y="32.565"/><use xlink:href="#19" y="34.736"/><use xlink:href="#12" y="36.907"/></svg><svg x="9676"><use xlink:href="#a"/><use xlink:href="#2"/><use xlink:href="#3" y="4.342"/><use xlink:href="#4" y="6.513"/><use xlink:href="#5" y="8.684"/><use xlink:href="#6" y="10.855"/><use xlink:href="#7" y="13.026"/><use xlink:href="#8" y="15.197"/><use xlink:href="#9" y="17.368"/><use xlink:href="#10" y="19.539"/><use xlink:href="#11" y="23.881"/><use xlink:href="#13" y="26.052"/><use xlink:href="#15" y="28.223"/><use xlink:href="#16" y="30.394"/><use xlink:href="#17" y="32.565"/><use xlink:href="#19" y="34.736"/><use xlink:href="#12" y="36.907"/></svg><svg x="9840"><use xlink:href="#a"/><use xlink:href="#2"/><use xlink:href="#3" y="4.342"/><use xlink:href="#4" y="6.513"/><use xlink:href="#5" y="8.684"/><use xlink:href="#6" y="10.855"/><use xlink:href="#7" y="13.026"/><use xlink:href="#8" y="15.197"/><use xlink:href="#9" y="17.368"/><use xlink:href="#10" y="19.539"/><use xlink:href="#11" y="23.881"/><use xlink:href="#13" y="26.052"/><use xlink:href="#15" y="28.223"/><use xlink:href="#16" y="30.394"/><use xlink:href="#17" y="32.565"/><use xlink:href="#19" y="34.736"/></svg><svg x="10004"><use xlink:href="#a"/><use xlink:href="#2"/><use xlink:href="#3" y="4.342"/><use xlink:href="#4" y="6.513"/><use xlink:href="#5" y="8.684"/><use xlink:href="#6" y="10.855"/><use xlink:href="#7" y="13.026"/><use xlink:href="#8" y="15.197"/><use xlink:href="#9" y="17.368"/><use xlink:href="#10" y="19.539"/><use xlink:href="#11" y="23.881"/><use xlink:href="#13" y="26.052"/><use xlink:href="#15" y="28.223"/><use xlink:href="#16" y="30.394"/><use xlink:href="#17" y="32.565"/><use xlink:href="#19" y="34.736"/><text y="38.577" class="f">aemb$</text><text x="6.012" y="38.577" class="f">e</text></svg><svg x="10168"><use xlink:href="#a"/><use xlink:href="#2"/><use xlink:href="#3" y="4.342"/><use xlink:href="#4" y="6.513"/><use xlink:href="#5" y="8.684"/><use xlink:href="#6" y="10.855"/><use xlink:href="#7" y="13.026"/><use xlink:href="#8" y="15.197"/><use xlink:href="#9" y="17.368"/><use xlink:href="#10" y="19.539"/><use xlink:href="#11" y="23.881"/><use xlink:href="#13" y="26.052"/><use xlink:href="#15" y="28.223"/><use xlink:href="#16" y="30.394"/><use xlink:href="#17" y="32.565"/><use xlink:href="#19" y="34.736"/></svg><svg x="10332"><use xlink:href="#a"/><use xlink:href="#2"/><use xlink:href="#3" y="4.342"/><use xlink:href="#4" y="6.513"/><use xlink:href="#5" y="8.684"/><use xlink:href="#6" y="10.855"/><use xlink:href="#7" y="13.026"/><use xlink:href="#8" y="15.197"/><use xlink:href="#9" y="17.368"/><use xlink:href="#10" y="19.539"/><use xlink:href="#11" y="23.881"/><use xlink:href="#13" y="26.052"/><use xlink:href="#15" y="28.223"/><use xlink:href="#16" y="30.394"/><use xlink:href="#17" y="32.565"/><use xlink:href="#19" y="34.736"/><text y="38.577" class="f">aemb$</text><text x="6.012" y="38.577" class="f">ex</text></svg><svg x="10496"><use xlink:href="#a"/><use xlink:href="#2"/><use xlink:href="#3" y="4.342"/><use xlink:href="#4" y="6.513"/><use xlink:href="#5" y="8.684"/><use xlink:href="#6" y="10.855"/><use xlink:href="#7" y="13.026"/><use xlink:href="#8" y="15.197"/><use xlink:href="#9" y="17.368"/><use xlink:href="#10" y="19.539"/><use xlink:href="#11" y="23.881"/><use xlink:href="#13" y="26.052"/><use xlink:href="#15" y="28.223"/><use xlink:href="#16" y="30.394"/><use xlink:href="#17" y="32.565"/><use xlink:href="#19" y="34.736"/></svg><svg x="10660"><use xlink:href="#a"/><use xlink:href="#2"/><use xlink:href="#3" y="4.342"/><use xlink:href="#4" y="6.513"/><use xlink:href="#5" y="8.684"/><use xlink:href="#6" y="10.855"/><use xlink:href="#7" y="13.026"/><use xlink:href="#8" y="15.197"/><use xlink:href="#9" y="17.368"/><use xlink:href="#10" y="19.539"/><use xlink:href="#11" y="23.881"/><use xlink:href="#13" y="26.052"/><use xlink:href="#15" y="28.223"/><use xlink:href="#16" y="30.394"/><use xlink:href="#17" y="32.565"/><use xlink:href="#19" y="34.736"/><text y="38.577" class="f">aemb$</text><text x="6.012" y="38.577" class="f">exi</text></svg><svg x="10824"><use xlink:href="#a"/><use xlink:href="#2"/><use xlink:href="#3" y="4.342"/><use xlink:href="#4" y="6.513"/><use xlink:href="#5" y="8.684"/><use xlink:href="#6" y="10.855"/><use xlink:href="#7" y="13.026"/><use xlink:href="#8" y="15.197"/><use xlink:href="#9" y="17.368"/><use xlink:href="#10" y="19.539"/><use xlink:href="#11" y="23.881"/><use xlink:href="#13" y="26.052"/><use xlink:href="#15" y="28.223"/><use xlink:href="#16" y="30.394"/><use xlink:href="#17" y="32.565"/><use xlink:href="#19" y="34.736"/></svg><svg x="10988"><use xlink:href="#a"/><use xlink:href="#2"/><use xlink:href="#3" y="4.342"/><use xlink:href="#4" y="6.513"/><use xlink:href="#5" y="8.684"/><use xlink:href="#6" y="10.855"/><use xlink:href="#7" y="13.026"/><use xlink:href="#8" y="15.197"/><use xlink:href="#9" y="17.368"/><use xlink:href="#10" y="19.539"/><use xlink:href="#11" y="23.881"/><use xlink:href="#13" y="26.052"/><use xlink:href="#15" y="28.223"/><use xlink:href="#16" y="30.394"/><use xlink:href="#17" y="32.565"/><use xlink:href="#19" y="34.736"/><text y="38.577" class="f">aemb$</text><text x="6.012" y="38.577" class="f">exit</text></svg><svg x="11152"><use xlink:href="#a"/><use xlink:href="#2"/><use xlink:href="#3" y="4.342"/><use xlink:href="#4" y="6.513"/><use xlink:href="#5" y="8.684"/><use xlink:href="#6" y="10.855"/><use xlink:href="#7" y="13.026"/><use xlink:href="#8" y="15.197"/><use xlink:href="#9" y="17.368"/><use xlink:href="#10" y="19.539"/><use xlink:href="#11" y="23.881"/><use xlink:href="#13" y="26.052"/><use xlink:href="#15" y="28.223"/><use xlink:href="#16" y="30.394"/><use xlink:href="#17" y="32.565"/><use xlink:href="#19" y="34.736"/></svg><svg x="11316"><use xlink:href="#a"/><use xlink:href="#2"/><use xlink:href="#3" y="4.342"/><use xlink:href="#4" y="6.513"/><use xlink:href="#5" y="8.684"/><use xlink:href="#6" y="10.855"/><use xlink:href="#7" y="13.026"/><use xlink:href="#8" y="15.197"/><use xlink:href="#9" y="17.368"/><use xlink:href="#10" y="19.539"/><use xlink:href="#11" y="23.881"/><use xlink:href="#13" y="26.052"/><use xlink:href="#15" y="28.223"/><use xlink:href="#16" y="30.394"/><use xlink:href="#17" y="32.565"/><use xlink:href="#19" y="34.736"/><use xlink:href="#20" y="36.907"/></svg><svg x="11480"><use xlink:href="#a"/><use xlink:href="#2"/><use xlink:href="#3" y="4.342"/><use xlink:href="#4" y="6.513"/><use xlink:href="#5" y="8.684"/><use xlink:href="#6" y="10.855"/><use xlink:href="#7" y="13.026"/><use xlink:href="#8" y="15.197"/><use xlink:href="#9" y="17.368"/><use xlink:href="#10" y="19.539"/><use xlink:href="#11" y="23.881"/><use xlink:href="#13" y="26.052"/><use xlink:href="#15" y="28.223"/><use xlink:href="#16" y="30.394"/><use xlink:href="#17" y="32.565"/><use xlink:href="#19" y="34.736"/><use xlink:href="#20" y="36.907"/></svg><svg x="11644"><use xlink:href="#a"/><use xlink:href="#2"/><use xlink:href="#3" y="4.342"/><use xlink:href="#4" y="6.513"/><use xlink:href="#5" y="8.684"/><use xlink:href="#6" y="10.855"/><use xlink:href="#7" y="13.026"/><use xlink:href="#8" y="15.197"/><use xlink:href="#9" y="17.368"/><use xlink:href="#10" y="19.539"/><use xlink:href="#11" y="23.881"/><use xlink:href="#13" y="26.052"/><use xlink:href="#15" y="28.223"/><use xlink:href="#16" y="30.394"/><use xlink:href="#17" y="32.565"/><use xlink:href="#19" y="34.736"/><use xlink:href="#20" y="36.907"/><use xlink:href="#1" y="39.078"/></svg><svg x="11808"><use xlink:href="#a"/><use xlink:href="#2"/><use xlink:href="#3" y="4.342"/><use xlink:href="#4" y="6.513"/><use xlink:href="#5" y="8.684"/><use xlink:href="#6" y="10.855"/><use xlink:href="#7" y="13.026"/><use xlink:href="#8" y="15.197"/><use xlink:href="#9" y="17.368"/><use xlink:href="#10" y="19.539"/><use xlink:href="#11" y="23.881"/><use xlink:href="#13" y="26.052"/><use xlink:href="#15" y="28.223"/><use xlink:href="#16" y="30.394"/><use xlink:href="#17" y="32.565"/><use xlink:href="#19" y="34.736"/><use xlink:href="#20" y="36.907"/><text y="40.748" class="f">bash-3.2$</text><text x="10.02" y="40.748" class="f">exit</text></svg></svg></g></g></svg></svg>